<svg width="113" height="113" viewBox="0 0 113 113" fill="none" xmlns="http://www.w3.org/2000/svg">
<path fill-rule="evenodd" clip-rule="evenodd" d="M56.5 0.125C25.3656 0.125 0.125 25.3656 0.125 56.5C0.125 87.6344 25.3656 112.875 56.5 112.875C87.6344 112.875 112.875 87.6344 112.875 56.5C112.875 25.3656 87.6344 0.125 56.5 0.125ZM80.936 46.9675C81.386 46.4532 81.7285 45.854 81.9435 45.2054C82.1585 44.5567 82.2416 43.8716 82.1879 43.1903C82.1342 42.509 81.9448 41.8454 81.6308 41.2384C81.3169 40.6314 80.8847 40.0934 80.3597 39.6559C79.8347 39.2184 79.2275 38.8903 78.5739 38.6909C77.9202 38.4916 77.2333 38.425 76.5535 38.495C75.8737 38.565 75.2148 38.7703 74.6156 39.0987C74.0163 39.4272 73.4888 39.8722 73.064 40.4075L51.0265 66.8474L39.6234 55.4391C38.6568 54.5056 37.3622 53.989 36.0184 54.0007C34.6747 54.0123 33.3893 54.5513 32.4391 55.5016C31.4888 56.4518 30.9498 57.7372 30.9382 59.0809C30.9265 60.4247 31.4431 61.7193 32.3766 62.6859L47.7516 78.0609C48.2552 78.5641 48.8581 78.957 49.5219 79.2143C50.1857 79.4717 50.8958 79.5879 51.607 79.5556C52.3182 79.5233 53.0149 79.3431 53.6526 79.0267C54.2903 78.7102 54.8551 78.2643 55.311 77.7175L80.936 46.9675Z" fill="#0FA958"/>
</svg>
